<svg id="Layer_1" data-name="Layer 1" xmlns="http://www.w3.org/2000/svg" viewBox="0 0 283.17 80.67"><defs><style>.cls-1{fill:#263d4f;}</style></defs><title>Artboard 4</title><path class="cls-1" d="M42.68,60.37v2.8H0V0H41.42V2.8H3.07V29.69H37.36v2.8H3.07V60.37Z"/><path class="cls-1" d="M80.31,63.17l-17-22-17,22H42.86L61.63,39,43.86,16.33h3.52l16,20.49L79.23,16.33h3.43L65.06,39,84,63.17Z"/><path class="cls-1" d="M124.53,19a21.74,21.74,0,0,1,8.26,8.48,25,25,0,0,1,3,12.32,24.52,24.52,0,0,1-3,12.22,22,22,0,0,1-8.26,8.4,22.91,22.91,0,0,1-11.64,3A22,22,0,0,1,100.75,60a20.79,20.79,0,0,1-8-9.39V80.67h-3V16.33h2.89V29.15a21.18,21.18,0,0,1,8-9.66A21.87,21.87,0,0,1,112.89,16,22.81,22.81,0,0,1,124.53,19ZM123,58.07a19.07,19.07,0,0,0,7.18-7.4,22.15,22.15,0,0,0,2.61-10.87,22.43,22.43,0,0,0-2.61-10.92A19.07,19.07,0,0,0,123,21.43a21,21,0,0,0-20.48,0,19.07,19.07,0,0,0-7.18,7.45A22.43,22.43,0,0,0,92.77,39.8a22.15,22.15,0,0,0,2.61,10.87,19.07,19.07,0,0,0,7.18,7.4,21,21,0,0,0,20.48,0Z"/><path class="cls-1" d="M153.63,19a20.66,20.66,0,0,1,11.51-3v3h-.81q-8.13,0-12.73,5.14T147,38.26V63.17h-3V16.33h2.89V27.61A16.92,16.92,0,0,1,153.63,19Z"/><path class="cls-1" d="M209.9,40.16H168.84a21.58,21.58,0,0,0,2.79,10.64,19.1,19.1,0,0,0,7.45,7.31,21.5,21.5,0,0,0,10.6,2.62A22.09,22.09,0,0,0,198.53,59a16.43,16.43,0,0,0,6.67-5.19l1.9,2a21.07,21.07,0,0,1-7.67,5.68,23.85,23.85,0,0,1-9.75,2,24.49,24.49,0,0,1-12.22-3A21.87,21.87,0,0,1,169,52,24.4,24.4,0,0,1,166,39.71a26.07,26.07,0,0,1,2.84-12.28,20.94,20.94,0,0,1,7.9-8.43A22.41,22.41,0,0,1,199.11,19a21.26,21.26,0,0,1,7.9,8.3,25,25,0,0,1,2.89,12.09Zm-31.41-19a18.11,18.11,0,0,0-6.76,6.81,21.36,21.36,0,0,0-2.8,9.79H207.1a22,22,0,0,0-2.93-9.79,18.58,18.58,0,0,0-6.77-6.81A18.38,18.38,0,0,0,188,18.68,18.65,18.65,0,0,0,178.49,21.12Z"/><path class="cls-1" d="M218.69,61.72a19.93,19.93,0,0,1-7.8-4.51l1.44-2.34a24.36,24.36,0,0,0,7.45,4.24,27.34,27.34,0,0,0,9.7,1.71q7.58,0,11.19-2.57a8.32,8.32,0,0,0,3.61-7.17,6.89,6.89,0,0,0-1.94-5.15,12.05,12.05,0,0,0-4.83-2.8,69.94,69.94,0,0,0-7.76-1.8,73.26,73.26,0,0,1-9.07-2.21A13.4,13.4,0,0,1,215,35.46a9.91,9.91,0,0,1-2.35-7A11,11,0,0,1,217,19.54Q221.36,16,229.75,16a29.88,29.88,0,0,1,8.66,1.31,20.76,20.76,0,0,1,7,3.47l-1.53,2.35a20.07,20.07,0,0,0-6.55-3.29,26.59,26.59,0,0,0-7.71-1.13q-6.94,0-10.47,2.66a8.36,8.36,0,0,0-3.52,7,7.29,7.29,0,0,0,2,5.42,12.07,12.07,0,0,0,4.91,2.93,73.13,73.13,0,0,0,8,1.94,66,66,0,0,1,8.75,2.12A13.59,13.59,0,0,1,245,44.31a9.44,9.44,0,0,1,2.31,6.77,10.57,10.57,0,0,1-4.61,9c-3.06,2.23-7.49,3.34-13.26,3.34A32.66,32.66,0,0,1,218.69,61.72Z"/><path class="cls-1" d="M254.61,61.72a20,20,0,0,1-7.81-4.51l1.45-2.34a24.18,24.18,0,0,0,7.44,4.24,27.38,27.38,0,0,0,9.7,1.71q7.59,0,11.19-2.57a8.3,8.3,0,0,0,3.61-7.17,6.89,6.89,0,0,0-1.94-5.15,11.92,11.92,0,0,0-4.83-2.8,69.4,69.4,0,0,0-7.76-1.8,73.26,73.26,0,0,1-9.07-2.21,13.52,13.52,0,0,1-5.73-3.66,10,10,0,0,1-2.34-7,11,11,0,0,1,4.37-8.89Q257.27,16,265.66,16a30,30,0,0,1,8.67,1.31,21,21,0,0,1,7,3.47l-1.54,2.35a20,20,0,0,0-6.54-3.29,26.71,26.71,0,0,0-7.72-1.13q-6.94,0-10.46,2.66a8.36,8.36,0,0,0-3.52,7,7.33,7.33,0,0,0,2,5.42,12,12,0,0,0,4.92,2.93,72.55,72.55,0,0,0,8,1.94,66.36,66.36,0,0,1,8.75,2.12,13.72,13.72,0,0,1,5.64,3.57,9.48,9.48,0,0,1,2.3,6.77,10.56,10.56,0,0,1-4.6,9q-4.6,3.34-13.27,3.34A32.6,32.6,0,0,1,254.61,61.72Z"/></svg>