<svg data-name="Layer 1" xmlns="http://www.w3.org/2000/svg" viewBox="0 0 260.43 157.12"><path d="M61.45 41h49.12v3.9H66v29.37h42v3.9H66v32.26h45.13v3.9H61.45zM115 41h5.22l23.13 32.26L167 41l32.11-41-52.82 76.63 27.22 37.7h-5.43L143.32 80l-24.87 34.31h-5.32l27.42-37.7zm60.48 3.9V41h56v3.9h-25.84v69.45h-4.5V44.88zM0 41h5.63l77.61 116.12-32.07-42.79-46.46-67.8-.21 67.8H0zm231 68.27a1.64 1.64 0 111.61-1.63 1.59 1.59 0 01-1.61 1.61zm4.43-4.3h2.41a2.2 2.2 0 002.38 2.19c1.57 0 2.46-1 2.46-2.71V93.24h2.45v11.2c0 3.18-1.84 5-4.88 5-2.89.01-4.85-1.77-4.85-4.44zm12.91-.14h2.43c.21 1.5 1.68 2.46 3.79 2.46s3.42-1 3.42-2.43c0-1.2-.92-1.93-3-2.42l-2-.49c-2.86-.67-4.16-2.05-4.16-4.38 0-2.82 2.3-4.69 5.75-4.69 3.2 0 5.55 1.87 5.69 4.54h-2.39c-.23-1.46-1.5-2.37-3.34-2.37s-3.23.93-3.23 2.36c0 1.13.83 1.77 2.89 2.26l1.74.42c3.25.76 4.58 2.08 4.58 4.46 0 3-2.34 4.92-6.09 4.92-3.58-.02-5.94-1.83-6.11-4.66z" fill="#263d4f"/></svg>