<svg data-name="Layer 1" xmlns="http://www.w3.org/2000/svg" viewBox="0 0 186.41 176.97"><path d="M129.16 123.59A13.32 13.32 0 00127.74 97h-.48a13.28 13.28 0 00-12.81 13.76 13.63 13.63 0 003.8 8.78c-8.07 15.89-20.4 27.52-38.9 37.24a64.19 64.19 0 01-38.67 7.36c-10.67-1.43-19-6.17-24.19-14-7.6-11.62-8.31-24.2-1.9-36.77a55.77 55.77 0 0116.13-19c-.95-3.08-2.37-8.3-3.09-12.09-34.39 24.94-30.83 58.63-20.4 74.52C15.06 168.66 31 176 48.51 176a58.59 58.59 0 0014.23-1.66c30.36-5.91 53.37-23.94 66.42-50.75zm41.75-29.41c-18-21.12-44.6-32.74-75-32.74h-3.75a13.06 13.06 0 00-11.63-7.12h-.47a13.29 13.29 0 00.47 26.57H81a13.37 13.37 0 0011.62-8.06h4.28a90.42 90.42 0 0150.53 15.42c11.86 7.82 20.4 18 25.14 30.36 4 10 3.8 19.69-.47 28-6.65 12.57-17.79 19.45-32.5 19.45a60.62 60.62 0 01-23.25-5c-2.61 2.37-7.35 6.17-10.67 8.54 10.2 4.75 20.63 7.36 30.6 7.36 22.77 0 39.61-12.58 46-25.15 6.9-13.75 6.42-37.47-11.37-57.63zm-120.5 33.44a13.31 13.31 0 0013.28 12.81h.47a13.28 13.28 0 00-.47-26.56h-.47a4.13 4.13 0 00-1.66.23 86.9 86.9 0 01-12.34-52.66c1-14.23 5.69-26.57 14-36.77 6.88-8.78 20.16-13.05 29.17-13.28 25.15-.48 35.82 30.84 36.53 43.41 3.09.71 8.31 2.37 11.86 3.56C137.94 19.93 114.22 0 91.44 0c-21.34 0-41 15.42-48.86 38.19-10.91 30.37-3.8 59.54 9.49 82.56a10.59 10.59 0 00-1.66 6.87z" fill="#263d4f"/></svg>